Coordinates
version=1
nRows=6
nColumns=36
inDegrees=yes

Units are S.I. units (second, meters, Newtons, ...)
If the header above contains a line with 'inDegrees', this indicates whether rotational values are in degrees (yes) or radians (no).

endheader
time	pelvis_tilt	pelvis_list	pelvis_rotation	pelvis_tx	pelvis_ty	pelvis_tz	hip_flexion_r	hip_adduction_r	hip_rotation_r	knee_angle_r	knee_angle_r_beta	ankle_angle_r	subtalar_angle_r	mtp_angle_r	hip_flexion_l	hip_adduction_l	hip_rotation_l	knee_angle_l	knee_angle_l_beta	ankle_angle_l	subtalar_angle_l	mtp_angle_l	lumbar_extension	lumbar_bending	lumbar_rotation	arm_flex_r	arm_add_r	arm_rot_r	elbow_flex_r	pro_sup_r	arm_flex_l	arm_add_l	arm_rot_l	elbow_flex_l	pro_sup_l
      1.38000000	    -11.03514215	     -1.48231890	      1.37371551	     -0.25509921	      0.70467857	     -0.62119725	     69.45688427	     -5.12651408	     -1.73101413	    105.16386690	      1.83545573	     39.66585883	     -7.73417880	     -7.44221247	     71.16177589	      1.96979826	      3.86948976	    105.19049482	      1.83592048	     39.96082024	     -9.31936144	     -7.44221247	    -31.75418184	      1.63696440	     -2.20491819	     47.45077693	    -28.03031952	      1.06779628	     97.50307929	    105.51956050	     47.20931678	    -23.22083955	      6.07085758	     89.33249132	     95.53948739
      1.39000000	    -11.35868292	     -1.55321695	      1.77079138	     -0.25211602	      0.71814263	     -0.62122494	     68.06837615	     -5.06353760	     -1.88629219	    102.81912524	      1.79453227	     39.16901661	     -7.83814701	     -7.44318384	     69.82514599	      2.07266671	      3.94686931	    102.76952193	      1.79366653	     39.62938837	     -9.19919132	     -7.44318384	    -30.83079064	      1.75488088	     -2.93038644	     50.33603309	    -30.28663034	      1.66992146	    100.46865353	    105.47631731	     50.80483969	    -25.11237620	      7.57172078	     91.02207381	     95.51518745
      1.40000000	    -11.70712190	     -1.58231534	      2.19731438	     -0.24893813	      0.73244129	     -0.62123783	     66.60434386	     -5.03697015	     -2.05201749	    100.28066304	      1.75022775	     38.53660660	     -8.03639466	     -7.44390529	     68.40110282	      2.20122365	      4.00298785	    100.10843016	      1.74722172	     39.17331008	     -9.01827076	     -7.44390529	    -29.80479499	      1.83956096	     -3.63392368	     53.53071024	    -32.66544261	      2.17431090	    103.50308608	    105.48513623	     54.85629004	    -26.96426624	      9.14860713	     92.52453338	     95.53012532
      1.41000000	    -12.02759774	     -1.59528819	      2.61194568	     -0.24550533	      0.74766774	     -0.62120966	     65.00372364	     -4.94942940	     -2.15450392	     97.51855265	      1.70201983	     37.78946781	     -8.35567616	     -7.44453211	     66.84817600	      2.27607696	      4.06545357	     97.24543381	      1.69725300	     38.56144660	     -8.75926248	     -7.44453211	    -28.76042292	      1.87905493	     -4.27238865	     57.07440033	    -35.27392213	      2.72235545	    106.32834494	    105.49522038	     59.33170301	    -28.73088655	     10.90076711	     93.93738322	     95.57940171
      1.42000000	    -12.29797784	     -1.66047482	      2.92967819	     -0.24192208	      0.76374938	     -0.62083515	     63.29288643	     -4.69165741	     -2.30025750	     94.50703016	      1.64945884	     36.37418988	     -9.57256452	     -7.45923385	     65.19820489	      2.15427108	      4.13176069	     94.22861607	      1.64459960	     37.69772936	     -8.74283611	     -7.45923385	    -27.71365503	      1.69850365	     -4.14263666	     60.32573387	    -38.73683395	      2.67316632	    109.22825044	    102.25576164	     64.90662572	    -29.58426030	     14.01687520	     94.71032585	     92.53377432
      1.43000000	    -12.62143214	     -1.75205918	      3.29375820	     -0.23800344	      0.78062980	     -0.62056208	     61.52682124	     -4.59618144	     -2.54859246	     91.31832804	      1.59380549	     35.24070789	     -9.84492796	     -7.46029649	     63.54401003	      1.99650044	      4.20641064	     91.03888376	      1.58892827	     36.68035406	     -8.37088597	     -7.46029649	    -26.58475433	      1.70738793	     -4.81369252	     64.78746018	    -41.19370103	      3.66907001	    111.07633921	    102.31036377	     69.88529184	    -31.20802515	     15.99257538	     96.17530067	     92.69819651
